<svg width="1395" height="290" viewBox="0 0 1395 290" fill="none" xmlns="http://www.w3.org/2000/svg">
<path d="M199 135H1196.5V153.604H199V135Z" fill="#E3E3E3"/>
<path d="M1364.2 64.6043H1349.61V217.386H1364.2C1381.05 217.365 1394.71 203.708 1394.73 186.849V95.1303C1394.71 78.2761 1381.05 64.6199 1364.2 64.6043Z" fill="#2C2C32"/>
<path d="M1292.42 0.00012207H1234.5V289.167H1292.42C1309.27 289.146 1322.93 275.49 1322.95 258.636V30.5314C1322.93 13.6772 1309.27 0.0209554 1292.42 0.00012207Z" fill="#2C2C32"/>
<path d="M71.7812 30.5314V258.636C71.7969 275.49 85.4583 289.151 102.312 289.167H160.229V0.00012207H102.312C85.4583 0.0209554 71.7969 13.6772 71.7812 30.5314Z" fill="#2C2C32"/>
<path d="M0 95.1356V186.849C0.0156251 203.708 13.6771 217.365 30.5312 217.386H45.1146V64.6043H30.5312C13.6771 64.6199 0.0208333 78.2814 0 95.1356Z" fill="#2C2C32"/>
<path d="M365.568 221C354.067 221 343.916 218.942 335.113 214.826C326.31 210.709 319.424 204.819 314.454 197.154C309.485 189.489 307 180.263 307 169.475V163.514H334.687V169.475C334.687 178.418 337.455 185.16 342.993 189.702C348.53 194.102 356.055 196.302 365.568 196.302C375.223 196.302 382.393 194.386 387.079 190.554C391.906 186.721 394.32 181.824 394.32 175.863C394.32 171.746 393.113 168.411 390.699 165.856C388.427 163.301 385.02 161.243 380.476 159.681C376.075 157.978 370.679 156.417 364.29 154.997L359.392 153.933C349.169 151.662 340.366 148.823 332.983 145.416C325.742 141.868 320.133 137.255 316.158 131.577C312.324 125.899 310.408 118.518 310.408 109.434C310.408 100.35 312.537 92.614 316.797 86.2267C321.198 79.6973 327.304 74.7294 335.113 71.3228C343.064 67.7743 352.364 66 363.012 66C373.661 66 383.103 67.8452 391.338 71.5357C399.715 75.0842 406.246 80.478 410.932 87.717C415.759 94.8141 418.173 103.756 418.173 114.544V120.931H390.486V114.544C390.486 108.866 389.35 104.324 387.079 100.918C384.949 97.369 381.825 94.8141 377.708 93.2527C373.59 91.5494 368.692 90.6978 363.012 90.6978C354.493 90.6978 348.175 92.3301 344.058 95.5948C340.082 98.7175 338.094 103.047 338.094 108.582C338.094 112.273 339.017 115.396 340.863 117.951C342.851 120.505 345.761 122.635 349.595 124.338C353.428 126.041 358.327 127.532 364.29 128.809L369.189 129.874C379.837 132.145 389.066 135.054 396.875 138.603C404.826 142.152 411.003 146.836 415.404 152.655C419.806 158.475 422.006 165.927 422.006 175.011C422.006 184.095 419.664 192.115 414.978 199.07C410.435 205.883 403.904 211.277 395.385 215.251C387.008 219.084 377.069 221 365.568 221Z" fill="#0B0A11"/>
<path d="M460.65 221C454.97 221 450.143 219.155 446.167 215.464C442.334 211.632 440.417 206.735 440.417 200.773C440.417 194.812 442.334 189.986 446.167 186.295C450.143 182.463 454.97 180.547 460.65 180.547C466.471 180.547 471.298 182.463 475.132 186.295C478.965 189.986 480.882 194.812 480.882 200.773C480.882 206.735 478.965 211.632 475.132 215.464C471.298 219.155 466.471 221 460.65 221Z" fill="#0B0A11"/>
<path d="M554.036 218.019V68.9808H618.78C628.151 68.9808 636.315 70.6131 643.272 73.8777C650.229 77.1424 655.625 81.7555 659.458 87.717C663.292 93.6786 665.209 100.705 665.209 108.795V111.35C665.209 120.293 663.079 127.532 658.819 133.067C654.56 138.603 649.306 142.648 643.059 145.203V149.036C648.738 149.32 653.14 151.307 656.264 154.997C659.387 158.546 660.949 163.301 660.949 169.262V218.019H632.836V173.308C632.836 169.901 631.913 167.133 630.068 165.004C628.364 162.875 625.453 161.81 621.336 161.81H582.148V218.019H554.036ZM582.148 136.261H615.798C622.472 136.261 627.654 134.487 631.346 130.938C635.179 127.248 637.096 122.422 637.096 116.46V114.331C637.096 108.37 635.25 103.614 631.559 100.066C627.867 96.3755 622.614 94.5302 615.798 94.5302H582.148V136.261Z" fill="#0B0A11"/>
<path d="M746.53 221C727.788 221 712.88 215.89 701.805 205.67C690.731 195.309 685.193 180.547 685.193 161.385V125.615C685.193 106.453 690.731 91.7624 701.805 81.5426C712.88 71.1809 727.788 66 746.53 66C765.272 66 780.18 71.1809 791.255 81.5426C802.329 91.7624 807.867 106.453 807.867 125.615V161.385C807.867 180.547 802.329 195.309 791.255 205.67C780.18 215.89 765.272 221 746.53 221ZM746.53 195.876C757.037 195.876 765.201 192.825 771.022 186.721C776.843 180.618 779.754 172.456 779.754 162.236V124.764C779.754 114.544 776.843 106.382 771.022 100.279C765.201 94.1754 757.037 91.1236 746.53 91.1236C736.165 91.1236 728.001 94.1754 722.038 100.279C716.217 106.382 713.306 114.544 713.306 124.764V162.236C713.306 172.456 716.217 180.618 722.038 186.721C728.001 192.825 736.165 195.876 746.53 195.876Z" fill="#0B0A11"/>
<path d="M889.176 221C870.719 221 856.094 215.89 845.304 205.67C834.513 195.309 829.118 180.547 829.118 161.385V125.615C829.118 106.453 834.513 91.7624 845.304 81.5426C856.094 71.1809 870.719 66 889.176 66C907.492 66 921.62 71.0389 931.558 81.1168C941.639 91.0527 946.68 104.75 946.68 122.209V123.486H918.993V121.357C918.993 112.557 916.508 105.318 911.539 99.6401C906.711 93.9625 899.257 91.1236 889.176 91.1236C879.238 91.1236 871.429 94.1754 865.749 100.279C860.07 106.382 857.23 114.686 857.23 125.19V161.81C857.23 172.172 860.07 180.476 865.749 186.721C871.429 192.825 879.238 195.876 889.176 195.876C899.257 195.876 906.711 193.038 911.539 187.36C916.508 181.54 918.993 174.301 918.993 165.643V161.81H946.68V164.791C946.68 182.25 941.639 196.018 931.558 206.096C921.62 216.032 907.492 221 889.176 221Z" fill="#0B0A11"/>
<path d="M969.586 218.019V68.9808H997.699V128.17H1001.53L1049.88 68.9808H1085.87L1023.68 142.435L1088 218.019H1050.94L1001.53 157.552H997.699V218.019H969.586Z" fill="#0B0A11"/>
</svg>
